<svg width="36" height="36" viewBox="0 0 36 36" fill="none" xmlns="http://www.w3.org/2000/svg">
<path d="M17.7347 14.2959C16.5881 14.2962 15.4687 14.6564 14.5253 15.3285C13.5819 16.0007 12.8591 16.9529 12.4531 18.0588C12.2251 18.677 11.8032 19.1989 11.2544 19.5413C10.3082 20.1315 9.55129 20.9957 9.07799 22.0263C8.60468 23.0569 8.43591 24.2084 8.59269 25.3372C8.78595 26.728 9.45909 28.0002 10.4886 28.9205C11.5181 29.8407 12.8349 30.3472 14.1973 30.3469C15.0294 30.3468 15.8506 30.1519 16.5991 29.7769C16.9534 29.6015 17.3415 29.5104 17.7345 29.5105C18.1276 29.5105 18.5156 29.6016 18.8699 29.777C19.6183 30.152 20.4395 30.3468 21.2715 30.3469C22.6338 30.3472 23.9505 29.8408 24.9799 28.9207C26.0094 28.0007 26.6826 26.7287 26.876 25.3381C27.0329 24.2092 26.8643 23.0576 26.3911 22.0268C25.9178 20.9961 25.161 20.1317 24.2147 19.5414C23.6661 19.199 23.2443 18.6773 23.0164 18.0591C22.6104 16.9532 21.8877 16.0008 20.9443 15.3286C20.0009 14.6564 18.8814 14.2962 17.7347 14.2959Z" fill="#007FFF"/>
<circle cx="7.91837" cy="15.2244" r="2.91837" fill="#FFC247"/>
<circle cx="13.2245" cy="9.91837" r="2.91837" fill="#0055AC"/>
<circle cx="21.7143" cy="9.91837" r="2.91837" fill="#0055AC"/>
<circle cx="28.0816" cy="16.2858" r="2.91837" fill="#0055AC"/>
</svg>
